<?xml version="1.0" encoding="utf-8"?>
<!DOCTYPE svg PUBLIC "-//W3C//DTD SVG 1.1//EN" "http://www.w3.org/Graphics/SVG/1.1/DTD/svg11.dtd">
<svg version="1.1" id="Ebene_1" xmlns="http://www.w3.org/2000/svg" xmlns:xlink="http://www.w3.org/1999/xlink" x="0px" y="0px"
	 width="98.469px" height="104.348px" viewBox="0 0 98.469 104.348" enable-background="new 0 0 98.469 104.348"
	 xml:space="preserve">
<circle id="Circle" fill="#F0F0F0" cx="49.292" cy="55.151" r="49.125"/>
<g id="Backpack">
	<path fill="#7D8CAA" stroke="#50648C" stroke-width="1.5" stroke-miterlimit="10" d="M24.951,63.692v2.443
		c0,2.936,2.381,5.318,5.318,5.318h38.046c2.938,0,5.318-2.383,5.318-5.318v-2.443H24.951z"/>
	<path fill="#A0AFBE" stroke="#50648C" stroke-width="1.5" stroke-miterlimit="10" d="M69.565,46.593v11.25v5.85h5.729
		c3.23,0,5.85-2.619,5.85-5.85v-11.25H69.565z"/>
	<polygon fill="#C3CDD2" stroke="#50648C" stroke-width="1.5" stroke-miterlimit="10" points="81.143,44.192 75.293,44.192
		69.565,44.192 69.565,48.093 81.143,48.093 	"/>
	<path fill="#A0AFBE" stroke="#50648C" stroke-width="1.5" stroke-miterlimit="10" d="M29.018,46.593v11.25v5.85H23.29
		c-3.23,0-5.85-2.619-5.85-5.85v-11.25H29.018z"/>
	<polygon fill="#C3CDD2" stroke="#50648C" stroke-width="1.5" stroke-miterlimit="10" points="17.44,44.192 23.29,44.192
		29.018,44.192 29.018,48.093 17.44,48.093 	"/>
	<path fill="#A0AFBE" stroke="#50648C" stroke-width="1.5" stroke-miterlimit="10" d="M73.633,15.438
		c0-2.938-2.381-5.319-5.318-5.319H30.269c-2.938,0-5.318,2.381-5.318,5.319v48.265h48.683V15.438z"/>
	<path fill="none" stroke="#50648C" stroke-width="2" stroke-miterlimit="10" d="M43.917,14.286v-8.5
		c0-2.589,2.406-4.688,5.375-4.688l0,0c2.969,0,5.375,2.099,5.375,4.688v8.5"/>
	<path fill="#50648C" d="M40.214,56.552c0,0.992-1.001,1.797-2.235,1.797l0,0c-1.233,0-2.234-0.805-2.234-1.797V12.645
		c0-0.993,1.001-1.797,2.234-1.797l0,0c1.234,0,2.235,0.804,2.235,1.797V56.552z"/>
	<path fill="#C3CDD2" stroke="#50648C" stroke-miterlimit="10" d="M42.229,42.057c0,1.174-0.951,2.125-2.125,2.125h-4.25
		c-1.174,0-2.124-0.951-2.124-2.125l0,0c0-1.174,0.95-2.125,2.124-2.125h4.25C41.278,39.932,42.229,40.883,42.229,42.057
		L42.229,42.057z"/>
	<path fill="#50648C" d="M62.838,56.552c0,0.992-1,1.797-2.234,1.797l0,0c-1.234,0-2.234-0.805-2.234-1.797V12.645
		c0-0.993,1-1.797,2.234-1.797l0,0c1.234,0,2.234,0.804,2.234,1.797V56.552z"/>
	<path fill="#C3CDD2" stroke="#50648C" stroke-miterlimit="10" d="M64.854,42.057c0,1.174-0.951,2.125-2.125,2.125h-4.25
		c-1.174,0-2.125-0.951-2.125-2.125l0,0c0-1.174,0.951-2.125,2.125-2.125h4.25C63.903,39.932,64.854,40.883,64.854,42.057
		L64.854,42.057z"/>
	<path fill="#C3CDD2" d="M73.625,10.119H49.292H24.958c0,0,0,1.379,0,3.458h48.667C73.625,11.498,73.625,10.119,73.625,10.119z"/>
	<path fill="#A0AFBE" d="M24.958,13.452c0,2.986,0.001,8.507,0,10.429c0,6.85,10.895,12.404,24.333,12.404
		c13.439,0,24.334-5.554,24.334-12.404c0-1.842,0-7.42,0-10.429H24.958z"/>
	<path fill="none" stroke="#50648C" stroke-width="1.5" stroke-miterlimit="10" d="M73.625,23.202
		c0,7.225-10.895,13.083-24.334,13.083c-13.438,0-24.333-5.858-24.333-13.083c0.001-2.833,0-13.083,0-13.083h24.333h24.334
		C73.625,10.119,73.625,20.493,73.625,23.202z"/>
	<path fill="#F2F2F2" stroke="#50648C" stroke-miterlimit="10" d="M54.292,57.474c0,0.967-0.783,1.75-1.75,1.75h-6.5
		c-0.966,0-1.75-0.783-1.75-1.75l0,0c0-0.967,0.784-1.75,1.75-1.75h6.5C53.508,55.724,54.292,56.507,54.292,57.474L54.292,57.474z"
		/>
	<path fill="#F2F2F2" stroke="#50648C" stroke-miterlimit="10" d="M54.561,23.225c0.229,0.229,0.229,0.601,0,0.83l-4.854,4.854
		c-0.229,0.229-0.602,0.229-0.831,0l-4.854-4.854c-0.229-0.229-0.229-0.601,0-0.83l4.854-4.854c0.229-0.229,0.602-0.229,0.831,0
		L54.561,23.225z"/>
	<line fill="none" stroke="#50648C" stroke-miterlimit="10" x1="47.542" y1="22.14" x2="47.542" y2="25.14"/>
	<line fill="none" stroke="#50648C" stroke-miterlimit="10" x1="51.042" y1="22.14" x2="51.042" y2="25.14"/>
</g>
<g id="PackIt">
	<path fill="#323232" d="M19.743,79.168c1.184,1.064,1.776,2.517,1.776,4.356c0,1.056-0.204,2.044-0.612,2.964
		s-1.072,1.677-1.992,2.268c-0.92,0.593-2.108,0.889-3.564,0.889h-2.496v5.592h-3.48V77.572h5.352
		C16.887,77.572,18.559,78.104,19.743,79.168z M16.911,85.816c0.4-0.296,0.688-0.644,0.864-1.044
		c0.176-0.399,0.264-0.784,0.264-1.152c0-0.624-0.184-1.228-0.552-1.812c-0.368-0.584-1.08-0.876-2.136-0.876h-2.496v5.328h2.472
		C15.983,86.261,16.511,86.112,16.911,85.816z"/>
	<path fill="#323232" d="M31.575,91.78h-5.856l-1.44,3.456h-3.432l7.968-18.36h0.192l7.968,18.36h-4.032L31.575,91.78z
		 M30.423,88.853l-1.704-4.296l-1.776,4.296H30.423z"/>
	<path fill="#323232" d="M49.456,94.876c-0.976,0.368-2.04,0.553-3.192,0.553c-1.84,0-3.44-0.4-4.8-1.2s-2.4-1.876-3.12-3.229
		c-0.72-1.352-1.08-2.835-1.08-4.452c0-1.775,0.36-3.359,1.08-4.752c0.72-1.392,1.728-2.476,3.024-3.252
		c1.296-0.775,2.792-1.164,4.488-1.164c1.072,0,2.064,0.145,2.976,0.433s1.712,0.647,2.4,1.08l-1.368,3.288
		c-1.264-0.96-2.56-1.44-3.888-1.44c-0.896,0-1.736,0.248-2.52,0.744c-0.784,0.496-1.408,1.172-1.872,2.028
		c-0.464,0.855-0.696,1.804-0.696,2.844c0,1.136,0.216,2.132,0.648,2.988c0.432,0.855,1.047,1.523,1.848,2.004
		c0.8,0.479,1.736,0.72,2.808,0.72c0.864,0,1.64-0.14,2.328-0.42c0.688-0.28,1.232-0.612,1.632-0.996l1.44,3.12
		C51.144,94.141,50.431,94.509,49.456,94.876z"/>
	<path fill="#323232" d="M58.503,84.748l0.528-0.672l5.76-6.504h4.512l-7.296,7.92l7.32,9.744h-4.416L59.463,87.7l-0.864,0.864
		v6.672h-3.528V77.572h3.528v6.288L58.503,84.748z"/>
	<path fill="#7D8CAA" d="M75.447,77.572v17.664h-3.48V77.572H75.447z"/>
	<path fill="#7D8CAA" d="M90.71,77.572v3.36h-4.296v14.304h-3.48V80.933h-4.128v-3.36H90.71z"/>
</g>
</svg>
