<?xml version="1.0" encoding="utf-8"?>
<!DOCTYPE svg PUBLIC "-//W3C//DTD SVG 1.1//EN" "http://www.w3.org/Graphics/SVG/1.1/DTD/svg11.dtd">
<svg version="1.1" id="Ebene_1" xmlns="http://www.w3.org/2000/svg" xmlns:xlink="http://www.w3.org/1999/xlink" x="0px" y="0px"
	 width="100px" height="100px" viewBox="0 0 100 100" enable-background="new 0 0 100 100" xml:space="preserve">
<circle id="Circle" fill="#F0F0F0" cx="49.125" cy="49.126" r="49.125"/>
<g id="Backpack">
	<path fill="#7D8CAA" stroke="#50648C" stroke-width="1.5" stroke-miterlimit="10" d="M24.784,72.542v2.443
		c0,2.936,2.381,5.318,5.318,5.318h38.046c2.938,0,5.318-2.383,5.318-5.318v-2.443H24.784z"/>
	<path fill="#A0AFBE" stroke="#50648C" stroke-width="1.5" stroke-miterlimit="10" d="M69.398,55.442v11.25v5.85h5.729
		c3.23,0,5.85-2.619,5.85-5.85v-11.25H69.398z"/>
	<polygon fill="#C3CDD2" stroke="#50648C" stroke-width="1.5" stroke-miterlimit="10" points="80.977,53.041 75.127,53.041
		69.398,53.041 69.398,56.942 80.977,56.942 	"/>
	<path fill="#A0AFBE" stroke="#50648C" stroke-width="1.5" stroke-miterlimit="10" d="M28.852,55.442v11.25v5.85h-5.729
		c-3.23,0-5.85-2.619-5.85-5.85v-11.25H28.852z"/>
	<polygon fill="#C3CDD2" stroke="#50648C" stroke-width="1.5" stroke-miterlimit="10" points="17.273,53.041 23.123,53.041
		28.852,53.041 28.852,56.942 17.273,56.942 	"/>
	<path fill="#A0AFBE" stroke="#50648C" stroke-width="1.5" stroke-miterlimit="10" d="M73.467,24.287
		c0-2.938-2.381-5.319-5.318-5.319H30.103c-2.938,0-5.318,2.381-5.318,5.319v48.265h48.683V24.287z"/>
	<path fill="none" stroke="#50648C" stroke-width="2" stroke-miterlimit="10" d="M43.75,23.135v-8.5
		c0-2.589,2.406-4.688,5.375-4.688l0,0c2.969,0,5.375,2.099,5.375,4.688v8.5"/>
	<path fill="#50648C" d="M40.048,65.401c0,0.992-1.001,1.797-2.235,1.797l0,0c-1.233,0-2.234-0.805-2.234-1.797V21.494
		c0-0.992,1.001-1.797,2.234-1.797l0,0c1.234,0,2.235,0.805,2.235,1.797V65.401z"/>
	<path fill="#C3CDD2" stroke="#50648C" stroke-miterlimit="10" d="M42.062,50.906c0,1.174-0.951,2.125-2.125,2.125h-4.25
		c-1.174,0-2.124-0.951-2.124-2.125l0,0c0-1.174,0.95-2.125,2.124-2.125h4.25C41.111,48.781,42.062,49.732,42.062,50.906
		L42.062,50.906z"/>
	<path fill="#50648C" d="M62.672,65.401c0,0.992-1,1.797-2.234,1.797l0,0c-1.234,0-2.234-0.805-2.234-1.797V21.494
		c0-0.992,1-1.797,2.234-1.797l0,0c1.234,0,2.234,0.805,2.234,1.797V65.401z"/>
	<path fill="#C3CDD2" stroke="#50648C" stroke-miterlimit="10" d="M64.688,50.906c0,1.174-0.951,2.125-2.125,2.125h-4.25
		c-1.174,0-2.125-0.951-2.125-2.125l0,0c0-1.174,0.951-2.125,2.125-2.125h4.25C63.736,48.781,64.688,49.732,64.688,50.906
		L64.688,50.906z"/>
	<path fill="#C3CDD2" d="M73.459,18.968H49.125H24.792c0,0,0,1.38,0,3.459h48.667C73.459,20.348,73.459,18.968,73.459,18.968z"/>
	<path fill="#A0AFBE" d="M24.792,22.302c0,2.986,0.001,8.507,0,10.429c0,6.851,10.895,12.404,24.333,12.404
		c13.439,0,24.334-5.554,24.334-12.404c0-1.842,0-7.42,0-10.429H24.792z"/>
	<path fill="none" stroke="#50648C" stroke-width="1.5" stroke-miterlimit="10" d="M73.459,32.052
		c0,7.225-10.895,13.083-24.334,13.083c-13.438,0-24.333-5.858-24.333-13.083c0.001-2.834,0-13.084,0-13.084h24.333h24.334
		C73.459,18.968,73.459,29.342,73.459,32.052z"/>
	<path fill="#F2F2F2" stroke="#50648C" stroke-miterlimit="10" d="M54.125,66.323c0,0.967-0.783,1.75-1.75,1.75h-6.5
		c-0.966,0-1.75-0.783-1.75-1.75l0,0c0-0.967,0.784-1.75,1.75-1.75h6.5C53.342,64.573,54.125,65.356,54.125,66.323L54.125,66.323z"
		/>
	<path fill="#F2F2F2" stroke="#50648C" stroke-miterlimit="10" d="M54.395,32.074c0.229,0.229,0.229,0.602,0,0.83l-4.854,4.854
		c-0.229,0.229-0.602,0.229-0.831,0l-4.854-4.854c-0.229-0.229-0.229-0.601,0-0.83l4.854-4.854c0.229-0.229,0.602-0.229,0.831,0
		L54.395,32.074z"/>
	<line fill="none" stroke="#50648C" stroke-miterlimit="10" x1="47.376" y1="30.989" x2="47.376" y2="33.989"/>
	<line fill="none" stroke="#50648C" stroke-miterlimit="10" x1="50.876" y1="30.989" x2="50.876" y2="33.989"/>
</g>
</svg>
